<?xml version="1.0" encoding="utf-8"?>
<!-- Generator: Adobe Illustrator 18.1.1, SVG Export Plug-In . SVG Version: 6.00 Build 0)  -->
<svg version="1.1" id="Layer_1" xmlns="http://www.w3.org/2000/svg" xmlns:xlink="http://www.w3.org/1999/xlink" x="0px" y="0px"
	 width="542.4px" height="332.3px" viewBox="31.3 232.6 542.4 332.3" enable-background="new 31.3 232.6 542.4 332.3"
	 xml:space="preserve">
<g id="Layer_3">
	<rect x="-6.5" y="208.1" display="none" fill="#3B95D1" width="623.6" height="385.3"/>
</g>
<g id="Layer_1_1_">
	<g display="none">
		<path display="inline" fill="#064366" d="M139.4,427.6v33.7c0,31.7-21.7,50.4-51.1,50.4c-29.3,0-51.1-18.7-51.1-50.4v-174
			c0-31.7,21.7-50.4,51.1-50.4s51.1,18.7,51.1,50.4v25.9h-32v-25.9c0-12.6-7.6-20.6-19.1-20.6c-11.5,0-19.1,8-19.1,20.6v173.9
			c0,12.6,7.6,20.6,19.1,20.6s19.1-8,19.1-20.6v-33.7L139.4,427.6L139.4,427.6z"/>
		<path display="inline" fill="#064366" d="M167.9,254.5h31.3V465c0,9.5,3.4,15.6,11,15.6h19.1v25.6c0,0-9.2,3.4-19.1,3.4
			c-27.1,0-42.3-16.4-42.3-44.6V254.5z"/>
		<path display="inline" fill="#E2231A" d="M188.4,312.9c3.5,1.5,3.9,6.4,3.9,8.1C192.3,319.4,192,314.4,188.4,312.9
			c-39.7-16.5-81.1-6.4-81.1-6.4v0.1C107.3,306.6,148.7,296.5,188.4,312.9"/>
		<path display="inline" fill="#064366" d="M175.6,347.2v15.4c0.1-0.1,0.1-0.2,0.1-0.2c-0.1,0.1-0.1,0.2-0.1,0.2
			c-0.6,1.4,2,3.1,5.2,3.7c3.2,0.5,15,0.2,20.8,0.2c4.7,0,9.3,0.1,13.9,0.2c5.9,0.2,11.8,0.5,17.7,0.9c6.5,0.5,12.9,1.2,19.4,2.1
			c6.4,0.9,12.8,2.1,19.1,3.7c0.8,0.2,1.5,0.4,2.2,0.6l-16.6-23l0,0l-9.1-12.6l7.8-7l0,0l0,0l0,0l17.5-15.7
			c-33.8-9.2-81.3-7.3-81.3-7.3v-5.9c0,0,0.4-7-3.9-8.9c-39.7-16.5-81.1-6.4-81.1-6.4v19.4v0.1v19.4l0,0v19.5c1.9-0.4,3.5-0.7,5.4-1
			c5.1-0.8,10.3-1.3,15.5-1.6c7.1-0.5,14.3-0.6,21.5-0.2c8.1,0.4,13.3,1.4,21.2,3.2c1.1,0.2,2.1,0.5,3.2,0.8
			C174.7,346.9,175.1,347.1,175.6,347.2L175.6,347.2l0.5,0.1"/>
		<g display="inline">
			<g>
				<path fill="#064366" d="M272.6,486.8c5.7,0,10.2,4.1,10.2,10.2c0,6.1-4.5,10.2-10.2,10.2s-10.2-4.1-10.2-10.2
					C262.4,490.9,266.9,486.8,272.6,486.8z"/>
				<path fill="#064366" d="M377.1,534.9c0,21.3-15.3,34.4-35.4,34.4c-21.7,0-35.4-12.8-35.4-34.4c0-10.8,6.7-19.4,6.7-19.4l13.7,6
					c0,0-4.8,7-4.8,13.3c0,12.8,8.6,19.7,19.7,19.7c11.5,0,19.4-7.3,19.4-19.7v-35.7c-4.4,6-11.8,9.6-19.7,9.6
					c-19.4,0-35.7-13.1-35.7-34.7V368.3c0-21.7,16.2-34.7,35.7-34.7c19.7,0,35.7,13.1,35.7,34.7L377.1,534.9L377.1,534.9z
					 M321.6,474c0,12.4,8.9,20.1,19.7,20.1c11.2,0,19.7-7.6,19.7-20.1V368.3c0-12.4-8.6-20.1-19.7-20.1c-10.8,0-19.7,7.6-19.7,20.1
					V474z"/>
				<path fill="#064366" d="M478.3,474c0,21.7-15.9,34.7-35.7,34.7S407,495.7,407,474V368.3c0-21.7,15.9-34.7,35.7-34.7
					s35.7,13.1,35.7,34.7V474z M462.4,368.3c0-12.4-8.6-20.1-19.7-20.1c-11.2,0-19.7,7.6-19.7,20.1V474c0,12.4,8.6,20.1,19.7,20.1
					c11.2,0,19.7-7.6,19.7-20.1V368.3z"/>
				<path fill="#064366" d="M579.6,453.4c0,20.4-22,55.4-35.7,55.4c-14,0-35.7-35-35.7-55.4V336.8h15.9v116.6
					c0,13.7,13.7,37.6,19.7,37.6c5.7,0,19.7-23.9,19.7-37.6V367c0-11.5-2.9-15.6-11.5-15.6v-14.6c22-1.9,27.4,8.6,27.4,30.2V453.4z"
					/>
			</g>
		</g>
	</g>
	<g>
		<path fill="#FFFFFF" d="M133.5,423.2v33.7c0,31.7-21.7,50.4-51.1,50.4c-29.3,0-51.1-18.7-51.1-50.4V282.9
			c0-31.7,21.7-50.4,51.1-50.4s51.1,18.7,51.1,50.4v25.9h-32v-25.9c0-12.6-7.6-20.6-19.1-20.6s-19.1,8-19.1,20.6v173.9
			c0,12.6,7.6,20.6,19.1,20.6s19.1-8,19.1-20.6v-33.7H133.5L133.5,423.2z"/>
		<path fill="#FFFFFF" d="M162,250.2h31.3v66.4v29v115.1c0,9.5,3.4,15.6,11,15.6h19.1v25.6c0,0-9.2,3.4-19.1,3.4
			c-27.1,0-42.3-16.4-42.3-44.6V250.2z"/>
		<path fill="#E2231A" d="M186.4,323.3L186.4,323.3c0,0.1,33.1-1.3,63.7,3.6l0.1-0.1C219.5,322,186.4,323.3,186.4,323.3"/>
		<path fill="#E2231A" d="M182.5,308.6c3.5,1.5,3.9,6.4,3.9,8.1C186.4,315.1,186.1,310.1,182.5,308.6c-39.7-16.5-81.1-6.4-81.1-6.4
			v0.1C101.4,302.3,142.8,292.2,182.5,308.6"/>
		<path fill="#6E6F72" d="M193.2,339.9h-31.3v32.4l-0.1,1.2c0.4,1.2,2.7,2.4,5.3,2.8c3.2,0.5,15,0.2,20.8,0.2c1.8,0,3.5,0,5.3,0
			V339.9z"/>
		<path fill="#EA272A" d="M182.5,308.6c3.5,1.5,3.9,6.4,3.9,8.2c0,0.4,0,0.6,0,0.6v5.8c0,0,33.1-1.4,63.7,3.6l17.5-15.7
			c-33.8-9.2-81.3-7.3-81.3-7.3v-5.9c0,0,0.4-7-3.9-8.9c-39.7-16.5-81.1-6.4-81.1-6.4v19.4C101.4,302.3,142.8,292.2,182.5,308.6"/>
		<path fill="#AF2025" d="M175.9,354.6c3.4-1.4,7.3-2,8.4-3.4c1.1-1.2-0.1-2.5-1.1-3.3l-0.6-0.5c-1.4-0.9-3-1.4-4.6-1.9
			c-2-0.6-4-1.4-6-2c-0.7-0.2-1.5-0.4-2.2-0.6v15.4C170.4,356.9,172.4,356,175.9,354.6"/>
		<path fill="#FFFFFF" d="M182.5,328.1c4.4,1.8,3.9,8.9,3.9,8.9v5.9c0,0,34.1-1.4,65,3.8l-9.1-12.6l7.8-7
			c-30.6-4.9-63.7-3.5-63.7-3.5v-0.1v-5.8v-0.1c0,0,0-0.2,0-0.6c0-1.8-0.4-6.7-3.9-8.1c-39.7-16.5-81.1-6.4-81.1-6.4v19.5
			C101.4,321.7,142.8,311.6,182.5,328.1"/>
		<path fill="#EA272A" d="M186.4,342.8v-5.9c0,0,0.4-7-3.9-8.9c-39.7-16.5-81.1-6.3-81.1-6.3v19.5c1.9-0.4,3.5-0.7,5.4-1
			c5.1-0.8,10.3-1.3,15.5-1.6c7.1-0.5,14.3-0.6,21.5-0.2c8.1,0.4,13.3,1.4,21.2,3.2c1.1,0.2,2.1,0.5,3.2,0.8
			c0.5,0.1,0.9,0.3,1.4,0.4l0,0l0.4,0.1c0.6,0.2,1.2,0.4,1.8,0.5c2,0.6,4,1.4,6,2c1.6,0.5,3.2,1.1,4.6,1.9l0.6,0.5
			c1,0.8,2.2,2.1,1.1,3.3c-1.2,1.4-5,2-8.4,3.4c-3.4,1.4-5.6,2.2-6.1,3.6c-0.6,1.4,2,3.1,5.2,3.7c3.2,0.5,15,0.2,20.8,0.2
			c4.7,0,9.3,0.1,13.9,0.2c5.9,0.2,11.8,0.5,17.7,0.9c6.5,0.5,12.9,1.2,19.4,2.1s12.8,2.1,19.1,3.7c0.8,0.2,1.5,0.4,2.2,0.6
			l-16.6-23C220.4,341.4,186.4,342.8,186.4,342.8"/>
		<g>
			<g>
				<path fill="#FFFFFF" d="M266.7,482.5c5.7,0,10.2,4.1,10.2,10.2c0,6.1-4.5,10.2-10.2,10.2s-10.2-4.1-10.2-10.2
					C256.5,486.6,261,482.5,266.7,482.5z"/>
				<path fill="#FFFFFF" d="M371.2,530.5c0,21.3-15.3,34.4-35.4,34.4c-21.7,0-35.4-12.8-35.4-34.4c0-10.8,6.7-19.4,6.7-19.4l13.7,6
					c0,0-4.8,7-4.8,13.3c0,12.8,8.6,19.7,19.7,19.7c11.5,0,19.4-7.3,19.4-19.7v-35.7c-4.4,6-11.8,9.6-19.7,9.6
					c-19.4,0-35.7-13.1-35.7-34.7V364c0-21.7,16.2-34.7,35.7-34.7c19.7,0,35.7,13.1,35.7,34.7L371.2,530.5L371.2,530.5z
					 M315.7,469.7c0,12.4,8.9,20.1,19.7,20.1c11.2,0,19.7-7.6,19.7-20.1V364c0-12.4-8.6-20.1-19.7-20.1c-10.8,0-19.7,7.6-19.7,20.1
					V469.7z"/>
				<path fill="#FFFFFF" d="M472.4,469.7c0,21.7-15.9,34.7-35.7,34.7s-35.7-13.1-35.7-34.7V364c0-21.7,15.9-34.7,35.7-34.7
					s35.7,13.1,35.7,34.7V469.7z M456.5,364c0-12.4-8.6-20.1-19.7-20.1s-19.7,7.6-19.7,20.1v105.7c0,12.4,8.6,20.1,19.7,20.1
					s19.7-7.6,19.7-20.1V364z"/>
				<path fill="#FFFFFF" d="M573.7,449.1c0,20.4-22,55.4-35.7,55.4c-14,0-35.7-35-35.7-55.4V332.5h15.9v116.6
					c0,13.7,13.7,37.6,19.7,37.6c5.7,0,19.7-23.9,19.7-37.6v-86.3c0-11.5-2.9-15.6-11.5-15.6v-14.6c22-1.9,27.4,8.6,27.4,30.2V449.1
					z"/>
			</g>
		</g>
	</g>
</g>
<g id="Layer_2">
</g>
</svg>
